HIERARCHY
ROOT pelvis
{
  OFFSET 0 100 0
  CHANNELS 6 Xposition Yposition Zposition Zrotation Xrotation Yrotation
  JOINT pelvis_right_femur
  {
    OFFSET -10.78128 -3.44521 -0.5502486
    CHANNELS 3 Zrotation Xrotation Yrotation
    JOINT right_femur_tibia
    {
      OFFSET -0.8047443 -44.0398 -0.1307829
      CHANNELS 3 Zrotation Xrotation Yrotation
      JOINT right_tibia_foot
      {
        OFFSET 3.006224 -47.83518 -5
        CHANNELS 3 Zrotation Xrotation Yrotation
        End Site
        {
          OFFSET 0 -5 15
        }
      }
    }
  }
  JOINT pelvis_left_femur
  {
    OFFSET 10.78128 -3.44521 -0.5502486
    CHANNELS 3 Zrotation Xrotation Yrotation
    JOINT left_femur_tibia
    {
      OFFSET 0.8047443 -44.0398 -0.1307829
      CHANNELS 3 Zrotation Xrotation Yrotation
      JOINT left_tibia_foot
      {
        OFFSET -4.370144 -48.10324 -4.275266
        CHANNELS 3 Zrotation Xrotation Yrotation
        End Site
        {
          OFFSET 0 -5 15
        }
      }
    }
  }
  JOINT pelvis_spine1
  {
    OFFSET 0 6.468898 -3.129235
    CHANNELS 3 Zrotation Xrotation Yrotation
    JOINT spine1
    {
      OFFSET 0 23.15396 4.99043
      CHANNELS 3 Zrotation Xrotation Yrotation
      JOINT spine2
      {
        OFFSET 0 20.79997 -5.064912
        CHANNELS 3 Zrotation Xrotation Yrotation
        JOINT neck
        {
          OFFSET 0 14.38658 9.616178
          CHANNELS 3 Zrotation Xrotation Yrotation
          End Site
          {
            OFFSET 0 20 0
          }
        }
      }
      JOINT right_manubrium
      {
        OFFSET -5.722621 16.35077 3.967754
        CHANNELS 3 Zrotation Xrotation Yrotation
        JOINT right_clavicle
        {
          OFFSET -13.16364 1.694482 -4.693211
          CHANNELS 3 Zrotation Xrotation Yrotation
          JOINT right_humerus
          {
            OFFSET -28.5034 -0.3100689 -2.792744
            CHANNELS 3 Zrotation Xrotation Yrotation
            JOINT right_radius
            {
              OFFSET -25.15693 0.02248979 -1.271978
              CHANNELS 3 Zrotation Xrotation Yrotation
              End Site
              {
                OFFSET -15 0 0
              }
            }
          }
        }
      }
      JOINT left_manubrium
      {
        OFFSET 5.722621 16.35077 3.967754
        CHANNELS 3 Zrotation Xrotation Yrotation
        JOINT left_clavicle
        {
          OFFSET 13.16364 1.694482 -4.693211
          CHANNELS 3 Zrotation Xrotation Yrotation
          JOINT left_humerus
          {
            OFFSET 29.39168 -1.063119 -2.237045
            CHANNELS 3 Zrotation Xrotation Yrotation
            JOINT left_radius
            {
              OFFSET 24.59957 -0.9528479 0.9047498
              CHANNELS 3 Zrotation Xrotation Yrotation
              End Site
              {
                OFFSET 15 -0 -0
              }
            }
          }
        }
      }
    }
  }
}
MOTION
Frames: 13
Frame Time: 0.0416666666667
-681.277 107.4232 2435.98 -1.6386 -1.748824 -58.29159 3.218999 -26.6531 -3.957392 -0 8.153523 -0 -9.565096 5.391715 0.4139694 -5.951685 14.69406 -10.1127 -0 18.33467 -0 5.548976 -19.4229 16.71554 -0.1394727 -1.221797 4.218103 0.9599119 12.43938 -7.623957 2.066917 21.73287 5.33333 2.302646 -20.13277 7.031536 -1.784369 -18.45608 10.60901 93.2054 15.17265 -21.68092 -0 0 9.687652 -18.11951 10.18189 9.272415 6.691795 -23.82656 -4.485771 -86.69302 22.57578 11.90632 0 0 -24.31807 6.661023 10.2497 7.27329
-686.3237 106.784 2438.938 -1.503998 -1.040851 -58.23866 4.385108 -26.7073 -3.784321 -0 7.448145 -0 -10.36349 6.366339 0.9767546 -5.519753 14.0639 -9.216372 -0 22.66197 -0 5.851007 -17.6337 15.75715 -0.04176825 -1.307892 4.343872 0.953584 12.57444 -7.70373 2.040252 21.53694 5.378932 2.32791 -20.28583 7.042896 -1.8073 -18.686 10.65608 93.23753 15.14888 -21.76865 -0 0 9.970197 -18.17619 10.36486 9.298784 6.765223 -23.96871 -4.410141 -86.78424 22.38094 12.18365 0 0 -24.54062 6.764735 10.14147 7.180383
-691.6346 106.485 2442.024 -1.697 -0.5266319 -58.28723 5.511877 -25.47574 -3.6816 -0 7.214855 -0 -11.41085 6.977681 1.515988 -4.975584 12.85349 -8.241669 -0 28.3841 -0 5.764716 -15.12908 14.53708 0.0432161 -1.385063 4.569359 0.889254 12.70298 -7.669361 2.017219 21.35063 5.386523 2.338697 -20.35244 7.019231 -1.811979 -19.06572 10.69916 93.04574 15.17152 -21.47257 -0 0 10.68969 -18.33554 10.55683 9.454949 6.780888 -23.94377 -4.313165 -87.11025 22.19971 12.87706 0 0 -24.31993 6.676093 9.970507 7.292282
-697.1214 106.6035 2445.189 -2.252213 -0.2952311 -58.51877 6.537754 -22.97311 -3.559728 -0 7.468473 -0 -12.52555 7.009177 1.848845 -4.340157 10.91505 -7.262838 -0 35.45471 -0 5.406604 -12.10795 13.32603 0.1135598 -1.457927 4.887734 0.76638 12.82608 -7.515654 1.999497 21.18637 5.348679 2.327779 -20.32838 6.959685 -1.806632 -19.59935 10.74058 92.63413 15.21418 -20.78013 -0 0 11.83826 -18.6096 10.75698 9.754353 6.729826 -23.75162 -4.20722 -87.67029 22.03301 13.98383 0 0 -23.65373 6.395877 9.761121 7.603706
-702.6448 107.1614 2448.358 -3.14981 -0.4358704 -59.00107 7.350575 -19.33968 -3.37642 -0 8.01343 -0 -13.52684 6.438868 1.879884 -3.655392 8.081053 -6.35993 -0 43.29354 -0 4.951111 -8.953857 12.4502 0.1698753 -1.532381 5.289154 0.5867957 12.94496 -7.242022 1.989613 21.05262 5.259233 2.287592 -20.21379 6.866514 -1.800118 -20.2881 10.7841 92.01506 15.24146 -19.68991 -0 0 13.39923 -19.00896 10.96766 10.20813 6.604973 -23.39535 -4.104813 -88.45856 21.87452 15.49079 0 0 -22.55712 5.926417 9.537459 8.104845
-708.0358 108.0803 2451.437 -4.281965 -0.9745846 -59.74528 7.837269 -14.81887 -3.149298 -0 8.436563 -0 -14.25856 5.361801 1.647115 -2.952508 4.232198 -5.589733 -0 50.62403 -0 4.536173 -6.156527 12.13909 0.2140944 -1.61367 5.758856 0.3558698 13.05934 -6.854738 1.990501 20.95235 5.115136 2.212591 -20.0122 6.744777 -1.797432 -21.12332 10.83396 91.21062 15.21757 -18.22041 -0 0 15.33938 -19.53738 11.1926 10.82043 6.40377 -22.88251 -4.017164 -89.45796 21.71127 17.36315 0 0 -21.06724 5.272682 9.318554 8.781227
-713.1407 109.1678 2454.351 -5.450529 -1.797518 -60.67714 7.975533 -9.751166 -2.928517 -0 8.316529 -0 -14.62591 3.830017 1.287783 -2.203898 -0.5782477 -4.947881 -0 55.6635 -0 4.212504 -4.115987 12.40133 0.2481428 -1.704547 6.277224 0.08268322 13.16638 -6.367222 2.004829 20.88319 4.917864 2.101062 -19.73003 6.601622 -1.797091 -22.08293 10.89401 90.25167 15.11478 -16.41307 -0 0 17.60584 -20.18889 11.43425 11.58546 6.129433 -22.22503 -3.952792 -90.63765 21.52632 19.54082 0 0 -19.24186 4.443295 9.114587 9.614315
-717.875 110.1595 2457.068 -6.420573 -2.646636 -61.6554 7.872995 -4.568804 -2.75024 -0 7.532129 -0 -14.62906 1.75118 0.9271347 -1.310921 -5.991545 -4.359648 -0 56.75435 -0 3.96332 -2.950744 13.02827 0.2730757 -1.804041 6.821724 -0.2207854 13.26031 -5.798684 2.03437 20.83897 4.67401 1.95589 -19.37676 6.445575 -1.791634 -23.13196 10.96694 89.17528 14.91909 -14.32992 -0 0 20.12718 -20.94735 11.69083 12.48601 5.791003 -21.43843 -3.916095 -91.95395 21.30359 21.94152 0 0 -17.15437 3.4522 8.925808 10.58162
-722.2554 110.8058 2459.622 -7.024413 -3.234709 -62.53865 7.691171 0.2822116 -2.595737 -0 6.416583 -0 -14.3572 -1.032411 0.5785241 -0.1735933 -11.33105 -3.746214 -0 53.15055 -0 3.750744 -2.463126 13.74739 0.2886655 -1.906703 7.369017 -0.5406165 13.33252 -5.172845 2.079587 20.8122 4.395408 1.784541 -18.96587 6.286105 -1.770475 -24.22387 11.05348 88.02287 14.63322 -12.05117 -0 0 22.81309 -21.78599 11.95359 13.49143 5.403146 -20.5423 -3.906123 -93.35156 21.0337 24.46364 0 0 -14.89143 2.322009 8.743838 11.65492
-726.3866 110.9538 2462.089 -7.251922 -3.406776 -63.25251 7.511525 4.504509 -2.38252 -0 5.602273 -0 -13.93994 -4.528324 0.1514824 1.180729 -15.80361 -3.1474 -0 45.44205 -0 3.539357 -2.290193 14.40755 0.2931355 -2.001968 7.896091 -0.8613995 13.37167 -4.517821 2.139342 20.79666 4.099253 1.598804 -18.51607 6.133415 -1.723745 -25.30033 11.15126 86.84004 14.27823 -9.676163 -0 0 25.54961 -22.66527 12.20435 14.55373 4.986282 -19.5626 -3.915753 -94.76279 20.72058 26.98509 0 0 -12.55595 1.089024 8.554261 12.79665
-730.4175 110.5808 2464.557 -7.242027 -3.215436 -63.80839 7.270958 8.06554 -2.00882 -0 5.680563 -0 -13.50078 -8.418672 -0.4340365 2.521172 -18.82639 -2.783845 -0 35.32171 -0 3.293801 -2.118695 15.03867 0.28305 -2.074024 8.380867 -1.166442 13.36423 -3.866407 2.210666 20.78989 3.80783 1.414172 -18.05227 5.998102 -1.646357 -26.29129 11.25338 85.67666 13.89387 -7.32528 -0 0 28.19409 -23.53064 12.41453 15.60389 4.56632 -18.5349 -3.931837 -96.10782 20.38734 29.36286 0 0 -10.27058 -0.1921505 8.340208 13.95678
-734.4983 109.7801 2467.11 -7.174917 -2.858625 -64.27349 6.821256 11.13842 -1.432743 -0 6.951666 -0 -13.13564 -12.06159 -1.129755 3.498466 -20.24806 -2.949954 -0 24.88709 -0 2.975878 -1.819048 15.76106 0.2537603 -2.103573 8.803123 -1.438487 13.29687 -3.255081 2.288708 20.7946 3.546736 1.248221 -17.60472 5.890205 -1.541104 -27.11982 11.34789 84.58536 13.53521 -5.136097 -0 0 30.57947 -24.31448 12.54867 16.55423 4.172622 -17.50604 -3.937412 -97.30036 20.07748 31.44226 0 0 -8.17319 -1.448098 8.08754 15.07315
-738.7537 108.7234 2469.822 -7.164288 -2.552654 -64.72423 6.044645 13.91525 -0.7217369 -0 9.409657 -0 -12.90293 -14.66383 -1.73605 3.835446 -20.3142 -3.810256 -0 15.93895 -0 2.560849 -1.448133 16.65546 0.2006558 -2.072554 9.145739 -1.66132 13.161 -2.720815 2.367038 20.81779 3.340861 1.117698 -17.20516 5.81746 -1.418582 -27.71397 11.41948 83.61722 13.26374 -3.249846 -0 0 32.53408 -24.94602 12.57408 17.31135 3.833706 -16.53269 -3.916702 -98.25948 19.84668 33.07877 0 0 -6.400101 -2.593345 7.791166 16.07767
